HIERARCHY
ROOT mixamorig:Hips
{
	OFFSET -0.000008 104.274872 1.554316
	CHANNELS 6 Xposition Yposition Zposition Xrotation Yrotation Zrotation
	JOINT mixamorig:Spine
	{
		OFFSET -0.000005 10.181595 0.131519
		CHANNELS 6 Xposition Yposition Zposition Xrotation Yrotation Zrotation
		JOINT mixamorig:Spine1
		{
			OFFSET -0.000000 9.893959 -1.470707
			CHANNELS 6 Xposition Yposition Zposition Xrotation Yrotation Zrotation
			JOINT mixamorig:Spine2
			{
				OFFSET -0.000000 9.220757 -1.370641
				CHANNELS 6 Xposition Yposition Zposition Xrotation Yrotation Zrotation
				JOINT mixamorig:Neck
				{
					OFFSET 0.000001 16.740417 -2.049036
					CHANNELS 6 Xposition Yposition Zposition Xrotation Yrotation Zrotation
					JOINT mixamorig:Head
					{
						OFFSET 0.000000 9.617874 1.685006
						CHANNELS 6 Xposition Yposition Zposition Xrotation Yrotation Zrotation
						JOINT mixamorig:HeadTop_End
						{
							OFFSET 0.000002 22.037354 7.501101
							CHANNELS 6 Xposition Yposition Zposition Xrotation Yrotation Zrotation
							End Site
							{
								OFFSET 0.000168 2310.654297 -282.823242
							}
						}
					}
				}
				JOINT mixamorig:RightShoulder
				{
					OFFSET -4.569970 11.014908 -2.160885
					CHANNELS 6 Xposition Yposition Zposition Xrotation Yrotation Zrotation
					JOINT mixamorig:RightArm
					{
						OFFSET -10.592851 -0.524811 -2.232101
						CHANNELS 6 Xposition Yposition Zposition Xrotation Yrotation Zrotation
						JOINT mixamorig:RightForeArm
						{
							OFFSET -27.841511 0.000031 -0.000004
							CHANNELS 6 Xposition Yposition Zposition Xrotation Yrotation Zrotation
							JOINT mixamorig:RightHand
							{
								OFFSET -28.328831 -0.000015 0.000015
								CHANNELS 6 Xposition Yposition Zposition Xrotation Yrotation Zrotation
								JOINT mixamorig:RightHandThumb1
								{
									OFFSET -2.464806 -1.573990 2.681852
									CHANNELS 6 Xposition Yposition Zposition Xrotation Yrotation Zrotation
									JOINT mixamorig:RightHandThumb2
									{
										OFFSET -3.215179 -1.872803 1.924282
										CHANNELS 6 Xposition Yposition Zposition Xrotation Yrotation Zrotation
										JOINT mixamorig:RightHandThumb3
										{
											OFFSET -2.654831 -1.527969 1.512609
											CHANNELS 6 Xposition Yposition Zposition Xrotation Yrotation Zrotation
											JOINT mixamorig:RightHandThumb4
											{
												OFFSET -2.018814 -1.152008 1.108052
												CHANNELS 6 Xposition Yposition Zposition Xrotation Yrotation Zrotation
												End Site
												{
													OFFSET -188.809540 -114.533607 132.431396
												}
											}
										}
									}
								}
								JOINT mixamorig:RightHandIndex1
								{
									OFFSET -9.108284 -0.517868 2.259835
									CHANNELS 6 Xposition Yposition Zposition Xrotation Yrotation Zrotation
									JOINT mixamorig:RightHandIndex2
									{
										OFFSET -3.699989 0.000000 0.001215
										CHANNELS 6 Xposition Yposition Zposition Xrotation Yrotation Zrotation
										JOINT mixamorig:RightHandIndex3
										{
											OFFSET -2.850006 0.000031 -0.000522
											CHANNELS 6 Xposition Yposition Zposition Xrotation Yrotation Zrotation
											JOINT mixamorig:RightHandIndex4
											{
												OFFSET -2.772186 -0.000015 -0.000020
												CHANNELS 6 Xposition Yposition Zposition Xrotation Yrotation Zrotation
												End Site
												{
													OFFSET -277.218445 0.000000 -0.050231
												}
											}
										}
									}
								}
								JOINT mixamorig:RightHandMiddle1
								{
									OFFSET -9.532516 -0.000031 -0.000023
									CHANNELS 6 Xposition Yposition Zposition Xrotation Yrotation Zrotation
									JOINT mixamorig:RightHandMiddle2
									{
										OFFSET -3.700005 -0.000015 0.003713
										CHANNELS 6 Xposition Yposition Zposition Xrotation Yrotation Zrotation
										JOINT mixamorig:RightHandMiddle3
										{
											OFFSET -2.949974 0.000015 -0.002054
											CHANNELS 6 Xposition Yposition Zposition Xrotation Yrotation Zrotation
											JOINT mixamorig:RightHandMiddle4
											{
												OFFSET -2.946640 0.000000 -0.000156
												CHANNELS 6 Xposition Yposition Zposition Xrotation Yrotation Zrotation
												End Site
												{
													OFFSET -294.664337 0.000000 -0.113670
												}
											}
										}
									}
								}
								JOINT mixamorig:RightHandRing1
								{
									OFFSET -9.103600 -0.043076 -1.865134
									CHANNELS 6 Xposition Yposition Zposition Xrotation Yrotation Zrotation
									JOINT mixamorig:RightHandRing2
									{
										OFFSET -3.379288 0.000000 -0.001055
										CHANNELS 6 Xposition Yposition Zposition Xrotation Yrotation Zrotation
										JOINT mixamorig:RightHandRing3
										{
											OFFSET -2.889687 -0.000015 0.000379
											CHANNELS 6 Xposition Yposition Zposition Xrotation Yrotation Zrotation
											JOINT mixamorig:RightHandRing4
											{
												OFFSET -2.638809 -0.000015 0.000941
												CHANNELS 6 Xposition Yposition Zposition Xrotation Yrotation Zrotation
												End Site
												{
													OFFSET -263.880371 0.000000 0.516020
												}
											}
										}
									}
								}
								JOINT mixamorig:RightHandPinky1
								{
									OFFSET -8.076683 -0.486710 -3.806280
									CHANNELS 6 Xposition Yposition Zposition Xrotation Yrotation Zrotation
									JOINT mixamorig:RightHandPinky2
									{
										OFFSET -3.600014 -0.000015 -0.003747
										CHANNELS 6 Xposition Yposition Zposition Xrotation Yrotation Zrotation
										JOINT mixamorig:RightHandPinky3
										{
											OFFSET -2.099983 0.000000 -0.005739
											CHANNELS 6 Xposition Yposition Zposition Xrotation Yrotation Zrotation
											JOINT mixamorig:RightHandPinky4
											{
												OFFSET -2.115768 -0.000031 -0.003680
												CHANNELS 6 Xposition Yposition Zposition Xrotation Yrotation Zrotation
												End Site
												{
													OFFSET -211.577087 0.000000 -0.350686
												}
											}
										}
									}
								}
							}
						}
					}
				}
				JOINT mixamorig:LeftShoulder
				{
					OFFSET 4.570447 11.014725 -2.160855
					CHANNELS 6 Xposition Yposition Zposition Xrotation Yrotation Zrotation
					JOINT mixamorig:LeftArm
					{
						OFFSET 10.592371 -0.524597 -2.232119
						CHANNELS 6 Xposition Yposition Zposition Xrotation Yrotation Zrotation
						JOINT mixamorig:LeftForeArm
						{
							OFFSET 27.841532 -0.000031 0.000026
							CHANNELS 6 Xposition Yposition Zposition Xrotation Yrotation Zrotation
							JOINT mixamorig:LeftHand
							{
								OFFSET 28.328846 -0.000061 0.000022
								CHANNELS 6 Xposition Yposition Zposition Xrotation Yrotation Zrotation
								JOINT mixamorig:LeftHandThumb1
								{
									OFFSET 2.466141 -1.576172 2.681732
									CHANNELS 6 Xposition Yposition Zposition Xrotation Yrotation Zrotation
									JOINT mixamorig:LeftHandThumb2
									{
										OFFSET 3.217812 -1.872070 1.916482
										CHANNELS 6 Xposition Yposition Zposition Xrotation Yrotation Zrotation
										JOINT mixamorig:LeftHandThumb3
										{
											OFFSET 2.656029 -1.528778 1.514513
											CHANNELS 6 Xposition Yposition Zposition Xrotation Yrotation Zrotation
											JOINT mixamorig:LeftHandThumb4
											{
												OFFSET 2.020889 -1.154053 1.115139
												CHANNELS 6 Xposition Yposition Zposition Xrotation Yrotation Zrotation
												End Site
												{
													OFFSET 190.885437 -115.081749 130.048782
												}
											}
										}
									}
								}
								JOINT mixamorig:LeftHandIndex1
								{
									OFFSET 9.109314 -0.518021 2.259871
									CHANNELS 6 Xposition Yposition Zposition Xrotation Yrotation Zrotation
									JOINT mixamorig:LeftHandIndex2
									{
										OFFSET 3.699989 0.000000 -0.000322
										CHANNELS 6 Xposition Yposition Zposition Xrotation Yrotation Zrotation
										JOINT mixamorig:LeftHandIndex3
										{
											OFFSET 2.850006 0.000000 0.000352
											CHANNELS 6 Xposition Yposition Zposition Xrotation Yrotation Zrotation
											JOINT mixamorig:LeftHandIndex4
											{
												OFFSET 2.774864 -0.000031 -0.000027
												CHANNELS 6 Xposition Yposition Zposition Xrotation Yrotation Zrotation
												End Site
												{
													OFFSET 277.486267 0.000000 -0.009857
												}
											}
										}
									}
								}
								JOINT mixamorig:LeftHandMiddle1
								{
									OFFSET 9.533394 0.000061 0.000044
									CHANNELS 6 Xposition Yposition Zposition Xrotation Yrotation Zrotation
									JOINT mixamorig:LeftHandMiddle2
									{
										OFFSET 3.699989 -0.000015 -0.000231
										CHANNELS 6 Xposition Yposition Zposition Xrotation Yrotation Zrotation
										JOINT mixamorig:LeftHandMiddle3
										{
											OFFSET 2.949997 -0.000015 -0.000059
											CHANNELS 6 Xposition Yposition Zposition Xrotation Yrotation Zrotation
											JOINT mixamorig:LeftHandMiddle4
											{
												OFFSET 2.952896 0.000031 0.000063
												CHANNELS 6 Xposition Yposition Zposition Xrotation Yrotation Zrotation
												End Site
												{
													OFFSET 295.289337 0.000000 0.022810
												}
											}
										}
									}
								}
								JOINT mixamorig:LeftHandRing1
								{
									OFFSET 9.104523 -0.042999 -1.865074
									CHANNELS 6 Xposition Yposition Zposition Xrotation Yrotation Zrotation
									JOINT mixamorig:LeftHandRing2
									{
										OFFSET 3.150009 -0.000031 0.000043
										CHANNELS 6 Xposition Yposition Zposition Xrotation Yrotation Zrotation
										JOINT mixamorig:LeftHandRing3
										{
											OFFSET 2.949982 -0.000015 0.000040
											CHANNELS 6 Xposition Yposition Zposition Xrotation Yrotation Zrotation
											JOINT mixamorig:LeftHandRing4
											{
												OFFSET 2.644348 0.000000 0.000057
												CHANNELS 6 Xposition Yposition Zposition Xrotation Yrotation Zrotation
												End Site
												{
													OFFSET 264.434631 0.000000 0.012105
												}
											}
										}
									}
								}
								JOINT mixamorig:LeftHandPinky1
								{
									OFFSET 8.077789 -0.486847 -3.806259
									CHANNELS 6 Xposition Yposition Zposition Xrotation Yrotation Zrotation
									JOINT mixamorig:LeftHandPinky2
									{
										OFFSET 3.599953 0.000031 0.014727
										CHANNELS 6 Xposition Yposition Zposition Xrotation Yrotation Zrotation
										JOINT mixamorig:LeftHandPinky3
										{
											OFFSET 2.100021 0.000015 0.007705
											CHANNELS 6 Xposition Yposition Zposition Xrotation Yrotation Zrotation
											JOINT mixamorig:LeftHandPinky4
											{
												OFFSET 2.125504 0.000031 0.007517
												CHANNELS 6 Xposition Yposition Zposition Xrotation Yrotation Zrotation
												End Site
												{
													OFFSET 212.550781 0.000000 0.625752
												}
											}
										}
									}
								}
							}
						}
					}
				}
			}
		}
	}
	JOINT mixamorig:RightUpLeg
	{
		OFFSET -8.207787 -6.751648 -1.599560
		CHANNELS 6 Xposition Yposition Zposition Xrotation Yrotation Zrotation
		JOINT mixamorig:RightLeg
		{
			OFFSET -0.000002 -44.370117 0.345942
			CHANNELS 6 Xposition Yposition Zposition Xrotation Yrotation Zrotation
			JOINT mixamorig:RightFoot
			{
				OFFSET 0.000003 -44.423679 -3.043532
				CHANNELS 6 Xposition Yposition Zposition Xrotation Yrotation Zrotation
				JOINT mixamorig:RightToeBase
				{
					OFFSET -0.000002 -8.728671 10.710558
					CHANNELS 6 Xposition Yposition Zposition Xrotation Yrotation Zrotation
					JOINT mixamorig:RightToe_End
					{
						OFFSET -0.000001 -0.000679 9.278119
						CHANNELS 6 Xposition Yposition Zposition Xrotation Yrotation Zrotation
						End Site
						{
							OFFSET 0.000000 -0.067690 927.812134
						}
					}
				}
			}
		}
	}
	JOINT mixamorig:LeftUpLeg
	{
		OFFSET 8.207793 -6.751686 -1.599556
		CHANNELS 6 Xposition Yposition Zposition Xrotation Yrotation Zrotation
		JOINT mixamorig:LeftLeg
		{
			OFFSET -0.000004 -44.370014 0.346954
			CHANNELS 6 Xposition Yposition Zposition Xrotation Yrotation Zrotation
			JOINT mixamorig:LeftFoot
			{
				OFFSET -0.000001 -44.423672 -3.044401
				CHANNELS 6 Xposition Yposition Zposition Xrotation Yrotation Zrotation
				JOINT mixamorig:LeftToeBase
				{
					OFFSET -0.000002 -8.728669 10.710558
					CHANNELS 6 Xposition Yposition Zposition Xrotation Yrotation Zrotation
					JOINT mixamorig:LeftToe_End
					{
						OFFSET -0.000003 -0.000679 9.278133
						CHANNELS 6 Xposition Yposition Zposition Xrotation Yrotation Zrotation
						End Site
						{
							OFFSET 0.000000 -0.068021 927.813477
						}
					}
				}
			}
		}
	}
}
MOTION
Frames: 3
Frame Time: 0.033333
0.000006 104.270477 1.554256 0.000010 0.000003 -0.000113 -0.000005 10.181587 0.131522 0.000001 -0.000003 0.000084 -0.000000 9.893967 -1.470711 0.000001 0.000000 -0.000000 -0.000000 9.220802 -1.370642 0.000000 -0.000000 -0.000000 0.000001 16.740433 -2.049030 0.000000 -0.000000 -0.000000 0.000000 9.617859 1.685014 0.000000 0.000000 0.000000 0.000002 22.037384 7.501101 0.000000 -0.000000 0.000000 -4.569968 11.014880 -2.160881 0.000008 0.000001 -0.000038 -10.592876 -0.524760 -2.231901 74.324213 28.442175 -21.748140 -27.841530 0.000003 0.000549 -56.546600 107.256831 72.279097 -28.328829 0.000004 0.000022 -0.000320 -0.000043 0.000007 -2.464427 -1.573864 2.682364 -38.280550 -158.227384 11.934571 -3.215259 -1.872576 1.924657 154.043374 31.742973 5.131230 -2.654954 -1.527885 1.513077 150.183634 26.908010 -31.995157 -2.018842 -1.151998 1.108057 -0.000006 -0.000003 0.000002 -9.108381 -0.517565 2.260160 107.055313 17.098615 -23.053647 -3.700071 0.000289 0.001545 103.083544 15.830210 -19.827339 -2.850088 0.000360 -0.000221 102.466279 13.073892 -16.240112 -2.772154 -0.000001 -0.000019 -0.000000 -0.000001 -0.000001 -9.532588 0.000264 0.000280 102.763051 16.690259 -20.989130 -3.700088 0.000315 0.004017 102.491927 14.779628 -18.235639 -2.950083 0.000327 -0.001768 102.470323 13.067742 -16.225869 -2.946609 0.000000 -0.000153 -0.000000 0.000000 -0.000000 -9.103711 -0.042754 -1.864846 101.452228 18.367793 -22.313021 -3.379346 0.000307 -0.000745 104.128747 11.550339 -14.808572 -2.889756 0.000339 0.000678 107.199027 7.586534 -10.339776 -2.638804 -0.000003 0.000939 0.000000 0.000001 0.000001 -8.076746 -0.486389 -3.805970 95.809085 18.734415 -20.527570 -3.600035 0.000276 -0.003455 100.762209 9.285041 -10.771874 -2.100010 0.000318 -0.005434 103.142550 5.450230 -6.590469 -2.115775 -0.000055 -0.003676 -0.000002 0.000001 -0.000000 4.570446 11.014691 -2.160851 -0.000018 0.000010 -0.000021 10.592407 -0.524477 -2.232367 71.281896 -16.129490 11.602308 27.841808 0.000062 -0.000203 96.464708 -73.714571 80.020215 28.328846 -0.000028 0.000019 0.000024 -0.000088 0.000001 2.466114 -1.576156 2.681900 -19.197541 151.714607 -44.998844 3.217727 -1.871668 1.916374 154.748468 -34.672212 -22.086935 2.656108 -1.528648 1.514456 143.956824 -26.691681 46.710144 2.020899 -1.154068 1.115146 0.000005 0.000012 0.000006 9.109365 -0.517872 2.259742 84.047568 -17.955396 16.194025 3.700033 0.000137 -0.000465 80.190553 -19.062602 16.107855 2.850052 0.000166 0.000222 79.407417 -15.197343 12.640588 2.774891 -0.000019 -0.000026 0.000000 -0.000001 -0.000002 9.533466 0.000215 -0.000092 84.548105 -15.863309 14.429258 3.700051 0.000168 -0.000377 86.565490 -14.248603 13.424327 2.950062 0.000169 -0.000193 87.482996 -17.580968 16.839150 2.952861 -0.000030 0.000062 -0.000003 -0.000001 -0.000001 9.104575 -0.042834 -1.865228 83.516985 -14.140398 12.639255 3.150046 0.000233 -0.000104 89.644020 -10.569432 10.506110 2.950033 0.000182 -0.000073 92.951061 -13.040959 13.726025 2.644333 0.000031 0.000057 0.000001 -0.000000 -0.000000 8.077822 -0.486715 -3.806397 73.531583 -15.233591 11.851113 3.600007 0.000187 0.014566 76.845987 -10.764030 8.942962 2.100046 0.000193 0.007534 81.729525 -10.614635 9.601469 2.125497 0.000000 0.007513 -0.000000 -0.000001 -0.000000 -8.207786 -6.751667 -1.599560 -0.077001 -0.000003 0.000080 -0.000002 -44.370110 0.345938 0.153719 -0.000000 -0.000000 0.000000 -44.423679 -3.043532 -0.076700 0.000000 -0.000002 -0.000006 -8.728667 10.710559 -0.000009 -0.000000 -0.000000 -0.000001 -0.000679 9.278123 0.000000 -0.000000 -0.000000 8.207792 -6.751710 -1.599556 -0.074518 -0.000003 0.000081 -0.000002 -44.370014 0.346960 0.148822 0.000002 0.000000 -0.000001 -44.423664 -3.044403 -0.074314 0.000000 -0.000002 -0.000004 -8.728671 10.710558 0.000007 -0.000000 -0.000000 0.000000 -0.000680 9.278137 -0.000000 0.000000 -0.000001 
0.000006 104.270477 1.554256 0.000010 0.000003 -0.000113 -0.000005 10.181587 0.131522 0.000001 -0.000003 0.000084 -0.000000 9.893967 -1.470711 0.000001 0.000000 -0.000000 -0.000000 9.220802 -1.370642 0.000000 -0.000000 -0.000000 0.000001 16.740433 -2.049030 0.000000 -0.000000 -0.000000 0.000000 9.617859 1.685014 0.000000 0.000000 0.000000 0.000002 22.037384 7.501101 0.000000 -0.000000 0.000000 -4.569968 11.014880 -2.160881 0.000008 0.000001 -0.000038 -10.592867 -0.524774 -2.231889 74.017408 33.539319 -25.594940 -27.841537 0.000003 0.000556 -52.714929 105.271008 65.958454 -28.328819 -0.000004 0.000034 -0.000321 -0.000044 0.000007 -2.464410 -1.573783 2.682327 -47.417355 -162.226350 -8.843572 -3.215269 -1.872565 1.924632 149.528851 31.388305 7.259562 -2.654952 -1.527850 1.513047 144.579791 28.456107 -22.765138 -2.018827 -1.152018 1.108056 -0.000001 -0.000003 0.000002 -9.108372 -0.517552 2.260154 106.205234 14.320427 -19.059515 -3.700056 0.000320 0.001536 101.756459 11.920068 -14.600957 -2.850085 0.000367 -0.000224 100.590245 9.567854 -11.509431 -2.772164 0.000001 -0.000020 -0.000000 -0.000002 0.000000 -9.532575 0.000273 0.000278 101.840265 14.424509 -17.885950 -3.700073 0.000331 0.004009 101.439613 11.908128 -14.418085 -2.950055 0.000342 -0.001758 101.970749 11.362365 -13.991370 -2.946627 0.000000 -0.000156 0.000001 0.000002 0.000001 -9.103693 -0.042755 -1.864836 100.831883 15.970147 -19.205035 -3.379344 0.000320 -0.000759 101.479672 9.897227 -12.115572 -2.889765 0.000338 0.000694 105.226898 7.510567 -9.878324 -2.638813 0.000002 0.000941 -0.000000 0.000001 0.000001 -8.076752 -0.486386 -3.805985 95.302442 17.075408 -18.540957 -3.600052 0.000295 -0.003481 97.117469 8.133628 -8.807904 -2.100018 0.000316 -0.005444 99.282489 4.881429 -5.487372 -2.115765 -0.000039 -0.003679 0.000001 -0.000002 -0.000004 4.570446 11.014691 -2.160851 -0.000018 0.000010 -0.000021 10.592385 -0.524492 -2.232350 71.286664 -7.368022 5.287047 27.841820 0.000033 -0.000191 97.683624 -74.156573 81.686931 28.328846 -0.000029 0.000017 0.000020 -0.000089 0.000000 2.466189 -1.576122 2.681868 -6.111984 158.018325 -71.723694 3.217779 -1.871728 1.916387 162.337573 -32.055840 -1.368608 2.656098 -1.528690 1.514472 142.939781 -26.491398 53.715183 2.020884 -1.154063 1.115143 0.000001 0.000003 0.000002 9.109383 -0.517862 2.259737 87.177201 -19.677795 18.736452 3.700038 0.000140 -0.000475 82.984141 -12.930048 11.461915 2.850060 0.000198 0.000190 81.677547 -10.436442 9.026041 2.774881 -0.000045 -0.000030 0.000001 0.000001 -0.000000 9.533469 0.000212 -0.000097 86.917108 -18.536305 17.571801 3.700037 0.000176 -0.000388 88.187762 -10.706215 10.372124 2.950047 0.000190 -0.000205 88.894270 -11.499549 11.284010 2.952873 -0.000031 0.000064 0.000001 -0.000001 0.000000 9.104595 -0.042858 -1.865216 86.358200 -17.894131 16.809545 3.150057 0.000193 -0.000090 91.410785 -10.315505 10.573055 2.950013 0.000178 -0.000075 92.867138 -9.841552 10.345904 2.644318 0.000030 0.000057 0.000002 0.000001 -0.000000 8.077859 -0.486728 -3.806401 78.239776 -19.172706 16.136464 3.599986 0.000169 0.014573 79.334068 -14.829529 12.751132 2.100035 0.000194 0.007540 82.376938 -11.379083 10.385323 2.125496 -0.000002 0.007512 0.000001 0.000003 -0.000000 -8.207786 -6.751667 -1.599560 -0.077001 -0.000003 0.000080 -0.000002 -44.370110 0.345938 0.153719 -0.000000 -0.000000 0.000000 -44.423679 -3.043532 -0.076700 0.000000 -0.000002 -0.000006 -8.728667 10.710559 -0.000009 -0.000000 -0.000000 -0.000001 -0.000679 9.278123 0.000000 -0.000000 -0.000000 8.207792 -6.751710 -1.599556 -0.074518 -0.000003 0.000081 -0.000002 -44.370014 0.346960 0.148822 0.000002 0.000000 -0.000001 -44.423664 -3.044403 -0.074314 0.000000 -0.000002 -0.000004 -8.728671 10.710558 0.000007 -0.000000 -0.000000 0.000000 -0.000680 9.278137 -0.000000 0.000000 -0.000001 
0.000006 104.270477 1.554256 0.000010 0.000003 -0.000113 -0.000005 10.181587 0.131522 0.000001 -0.000003 0.000084 -0.000000 9.893967 -1.470711 0.000001 0.000000 -0.000000 -0.000000 9.220802 -1.370642 0.000000 -0.000000 -0.000000 0.000001 16.740433 -2.049030 0.000000 -0.000000 -0.000000 0.000000 9.617859 1.685014 0.000000 0.000000 0.000000 0.000002 22.037384 7.501101 0.000000 -0.000000 0.000000 -4.569968 11.014880 -2.160881 0.000008 0.000001 -0.000038 -10.592858 -0.524794 -2.231843 73.842159 41.542279 -31.814676 -27.841526 0.000022 0.000556 -50.035138 103.464696 61.217633 -28.328835 0.000002 0.000031 -0.000321 -0.000042 0.000006 -2.464430 -1.573743 2.682307 -49.800767 -164.391547 -14.939198 -3.215292 -1.872594 1.924643 150.460270 30.060260 -3.967029 -2.654973 -1.527890 1.513053 142.602370 28.306875 -28.249948 -2.018842 -1.152005 1.108045 -0.000003 -0.000003 0.000002 -9.108381 -0.517545 2.260135 103.733812 13.960983 -17.787513 -3.700046 0.000332 0.001532 100.053030 11.639933 -13.837413 -2.850084 0.000377 -0.000247 99.385379 9.243421 -10.886404 -2.772164 -0.000000 -0.000021 -0.000000 -0.000000 0.000000 -9.532583 0.000288 0.000262 99.628418 13.220069 -15.787345 -3.700047 0.000339 0.004002 100.058508 10.908919 -12.886423 -2.950055 0.000334 -0.001754 100.764278 10.673095 -12.867833 -2.946641 0.000001 -0.000152 -0.000001 -0.000000 0.000000 -9.103696 -0.042732 -1.864848 99.106646 13.951853 -16.285510 -3.379327 0.000335 -0.000777 100.836391 8.753099 -10.598752 -2.889751 0.000363 0.000657 104.560504 7.179496 -9.333555 -2.638822 -0.000015 0.000942 -0.000000 -0.000003 -0.000001 -8.076749 -0.486373 -3.806010 94.826255 14.706169 -15.824394 -3.600033 0.000292 -0.003484 96.768734 6.661524 -7.106700 -2.100011 0.000333 -0.005462 99.561823 4.071415 -4.560267 -2.115759 -0.000028 -0.003670 -0.000002 -0.000001 -0.000004 4.570446 11.014691 -2.160851 -0.000018 0.000010 -0.000021 10.592420 -0.524475 -2.232364 71.404123 -19.693927 14.220262 27.841816 0.000026 -0.000179 98.757050 -75.330703 83.970414 28.328842 -0.000029 0.000022 0.000020 -0.000090 0.000002 2.466211 -1.576122 2.681868 -2.532279 158.132799 -76.935825 3.217822 -1.871758 1.916389 164.231981 -29.035817 12.163312 2.656123 -1.528660 1.514461 142.259972 -26.727297 53.640283 2.020899 -1.154087 1.115149 -0.000003 0.000002 0.000002 9.109387 -0.517861 2.259737 87.125162 -19.493544 18.544025 3.700042 0.000166 -0.000446 82.886518 -12.004895 10.623218 2.850039 0.000177 0.000189 81.218483 -9.528260 8.173281 2.774894 -0.000031 -0.000023 -0.000000 -0.000002 0.000000 9.533479 0.000220 -0.000095 87.143529 -18.665756 17.763831 3.700045 0.000188 -0.000372 88.024486 -10.067543 9.725422 2.950043 0.000181 -0.000215 88.282586 -10.452097 10.147823 2.952874 -0.000030 0.000063 0.000003 -0.000001 -0.000000 9.104601 -0.042858 -1.865220 86.775614 -17.964676 16.997749 3.150048 0.000216 -0.000100 90.462802 -10.474728 10.561010 2.950032 0.000200 -0.000092 90.972901 -9.469805 9.632972 2.644332 0.000030 0.000054 0.000001 -0.000001 0.000001 8.077845 -0.486728 -3.806396 79.363738 -18.966471 16.283948 3.600016 0.000186 0.014559 79.536180 -15.208767 13.115607 2.100047 0.000185 0.007526 81.647713 -11.383279 10.257174 2.125511 -0.000015 0.007509 0.000001 -0.000002 0.000000 -8.207786 -6.751667 -1.599560 -0.077001 -0.000003 0.000080 -0.000002 -44.370110 0.345938 0.153719 -0.000000 -0.000000 0.000000 -44.423679 -3.043532 -0.076700 0.000000 -0.000002 -0.000006 -8.728667 10.710559 -0.000009 -0.000000 -0.000000 -0.000001 -0.000679 9.278123 0.000000 -0.000000 -0.000000 8.207792 -6.751710 -1.599556 -0.074518 -0.000003 0.000081 -0.000002 -44.370014 0.346960 0.148822 0.000002 0.000000 -0.000001 -44.423664 -3.044403 -0.074314 0.000000 -0.000002 -0.000004 -8.728671 10.710558 0.000007 -0.000000 -0.000000 0.000000 -0.000680 9.278137 -0.000000 0.000000 -0.000001 
